<svg width="12" height="16" viewBox="0 0 12 16" fill="none" xmlns="http://www.w3.org/2000/svg">
<g clip-path="url(#clip0_26_902)">
<path d="M5.29746 0.335713C5.68606 -0.110715 6.31715 -0.110715 6.70575 0.335713L11.6798 6.05C12.0684 6.49643 12.0684 7.22143 11.6798 7.66786C11.2912 8.11429 10.6602 8.11429 10.2716 7.66786L6.99487 3.9V14.8571C6.99487 15.4893 6.55031 16 6.00005 16C5.44979 16 5.00523 15.4893 5.00523 14.8571V3.90357L1.72855 7.66429C1.33995 8.11071 0.70886 8.11071 0.320259 7.66429C-0.0683417 7.21786 -0.0683417 6.49286 0.320259 6.04643L5.29435 0.332142L5.29746 0.335713Z" fill="#343434"/>
</g>
<defs>
<clipPath id="clip0_26_902">
<rect width="12" height="16" fill="white" transform="matrix(1 0 0 -1 0 16)"/>
</clipPath>
</defs>
</svg>
