<svg width="12" height="16" viewBox="0 0 12 16" fill="none" xmlns="http://www.w3.org/2000/svg">
<g clip-path="url(#clip0_26_902)">
<path d="M5.29746 15.6643C5.68606 16.1107 6.31715 16.1107 6.70575 15.6643L11.6798 9.95C12.0684 9.50357 12.0684 8.77857 11.6798 8.33214C11.2912 7.88571 10.6602 7.88571 10.2716 8.33214L6.99487 12.1V1.14286C6.99487 0.510714 6.55031 0 6.00005 0C5.44979 0 5.00523 0.510714 5.00523 1.14286V12.0964L1.72855 8.33571C1.33995 7.88929 0.70886 7.88929 0.320259 8.33571C-0.0683417 8.78214 -0.0683417 9.50714 0.320259 9.95357L5.29435 15.6679L5.29746 15.6643Z" fill="#343434"/>
</g>
<defs>
<clipPath id="clip0_26_902">
<rect width="12" height="16" fill="white"/>
</clipPath>
</defs>
</svg>
